<svg width="79" height="71" viewBox="0 0 79 71" fill="none" xmlns="http://www.w3.org/2000/svg">
<g clip-path="url(#clip0_111_324)">
<path d="M14.902 60.6255C13.9772 60.0341 12.6755 59.7722 10.9967 59.7682H6.5992C5.51968 59.7682 4.72195 59.6769 4.24172 59.5261C4.00359 59.4507 3.8488 59.3594 3.77736 59.288C3.70593 59.2126 3.69402 59.1768 3.69005 59.1014V58.4902C3.69799 58.4228 3.69005 58.4029 3.83293 58.3077C3.97184 58.2204 4.25759 58.1291 4.66638 58.0775C4.80926 58.0576 5.42443 58.0418 6.4087 58.0457H13.4057C13.7947 58.0457 14.1638 57.9505 14.4297 57.6965C14.6956 57.4425 14.7988 57.0853 14.7948 56.7082C14.7948 56.2518 14.7075 55.8589 14.4614 55.5533C14.2154 55.2437 13.8145 55.0969 13.4057 55.1009C12.2349 55.1009 6.19041 55.0929 5.39665 55.0929C4.58304 55.0929 3.79721 55.1961 3.35667 55.2914C1.49132 55.6724 0.233202 56.8591 0.24114 58.4942V59.1292C0.229233 60.3238 0.832495 61.3081 1.93186 61.8876C3.02329 62.4749 4.56319 62.7409 6.58333 62.7448H10.8935C11.6158 62.7409 12.1357 62.8361 12.4175 62.971C12.6993 63.1219 12.7469 63.2092 12.7588 63.4235V63.864C12.7469 64.118 12.6755 64.2371 12.358 64.4078C12.0365 64.5625 11.461 64.6657 10.6672 64.6657H1.68579C1.28097 64.6618 0.88409 64.8046 0.641991 65.1102C0.395924 65.4119 0.312579 65.8008 0.30861 66.2493C0.30861 66.6303 0.40783 66.9875 0.669773 67.2455C0.927747 67.4995 1.29288 67.6027 1.67786 67.6027H10.6593C12.4493 67.5987 13.8344 67.3249 14.8147 66.7017C15.7989 66.0826 16.3149 65.0785 16.307 63.864V63.3243C16.3189 62.1733 15.8307 61.2129 14.902 60.6255Z" fill="#001E61"/>
<path d="M51.6319 56.1211C50.5484 55.4147 49.0045 55.0972 47.0042 55.0932H42.579C40.9597 55.0932 39.5785 55.367 38.4435 55.9386C36.9115 56.6569 36.0384 57.8555 36.0503 59.3597V63.1896C36.0344 64.6938 36.9194 65.8765 38.4712 66.5552C39.7175 67.0751 41.0907 67.3331 42.5909 67.3331H47.0003C48.6394 67.3331 49.9808 67.087 51.0246 66.5631C52.4733 65.9003 53.2948 64.7057 53.2789 63.1936V59.3398C53.2908 57.9587 52.7193 56.8236 51.6319 56.1211ZM49.7983 63.1936C49.7943 63.3523 49.7507 63.4674 49.5998 63.6143C49.449 63.7572 49.1831 63.9119 48.7902 64.035C48.2107 64.2215 47.5956 64.3168 46.9407 64.3168H42.6306C41.8368 64.3168 41.1581 64.2294 40.5906 64.0667C40.1659 63.9437 39.8722 63.7889 39.7095 63.6381C39.5468 63.4833 39.4992 63.3642 39.4912 63.1896V59.3597C39.4952 59.1652 39.5508 59.0263 39.7135 58.8636C39.8762 58.7048 40.158 58.5381 40.5747 58.4032C41.1621 58.2167 41.8447 58.1214 42.6147 58.1214H46.9248C47.9845 58.1174 48.7624 58.2444 49.2149 58.4469C49.6752 58.6651 49.7824 58.8477 49.7943 59.1573V63.1936H49.7983Z" fill="#001E61"/>
<path d="M33.0462 56.0346C31.8833 55.3916 30.2323 55.1019 28.0732 55.0979H23.8504C21.9811 55.1019 20.6237 55.2726 19.7188 55.6734C18.2226 56.2568 17.3772 57.4792 17.3971 59.0747V69.2905C17.3971 69.6794 17.4963 70.0445 17.7582 70.3065C18.0162 70.5645 18.3774 70.6676 18.7623 70.6676H18.7743C19.1037 70.6676 19.3656 70.6597 19.572 70.6438C19.7625 70.624 19.8816 70.62 20.0363 70.5565C20.5642 70.3898 20.8658 69.8501 20.842 69.2905V67.2346H28.7162C30.6688 67.2306 32.169 66.925 33.2287 66.2384C34.2963 65.5558 34.852 64.4525 34.8401 63.107V59.039C34.8559 57.7372 34.213 56.6696 33.0462 56.0346ZM31.3713 63.1427C31.3594 63.492 31.2443 63.6785 30.8316 63.8968C30.4188 64.1032 29.7004 64.2302 28.7162 64.2262H20.842V59.1342C20.8539 58.8485 20.965 58.658 21.4731 58.4357C21.9731 58.2333 22.8066 58.1103 23.9377 58.1103H28.097C29.1567 58.1103 29.887 58.15 30.2243 58.2174C30.6728 58.3047 30.9784 58.4436 31.1451 58.5865C31.3118 58.7334 31.3673 58.8564 31.3713 59.0747V63.1427Z" fill="#001E61"/>
<path d="M61.7062 55.0952C59.7298 55.0952 58.2295 55.2698 57.1619 55.6468C55.4355 56.2223 54.4512 57.5042 54.475 59.2267V65.934C54.475 66.327 54.5663 66.6881 54.8164 66.958C55.0664 67.2239 55.4236 67.335 55.8006 67.335H55.8125C56.4555 67.3311 56.8166 67.3192 57.0945 67.2398C57.6382 67.0731 57.9398 66.5214 57.92 65.9459V59.2267C57.9359 58.8616 58.0509 58.6631 58.4637 58.4409C58.8765 58.2305 59.5909 58.0996 60.5791 58.1035C60.6704 58.1035 60.8252 58.1115 61.0276 58.1234C61.2379 58.1353 61.4006 58.1432 61.5237 58.1432C61.9682 58.1432 62.3611 58.0519 62.6627 57.8019C62.9683 57.5479 63.1033 57.159 63.0993 56.7541C63.0993 56.2858 63.012 55.881 62.7659 55.5675C62.5159 55.242 62.115 55.0912 61.7062 55.0952Z" fill="#001E61"/>
<path d="M78.4257 55.5447C78.1796 55.2312 77.7788 55.0843 77.374 55.0883H65.3881C64.9793 55.0843 64.5824 55.2312 64.3364 55.5447C64.0903 55.8543 64.003 56.2551 63.999 56.7155C63.999 57.1044 64.1022 57.4735 64.3642 57.7315C64.6261 57.9895 64.9952 58.0927 65.3881 58.0927H69.6546V65.943C69.6546 66.0621 69.6744 66.1534 69.6824 66.2089C69.6824 66.2129 69.6824 66.2248 69.6864 66.2407C69.6983 66.3121 69.7102 66.3756 69.73 66.4391C69.861 67.0067 70.4325 67.3599 71.0397 67.3321C71.1667 67.3321 71.2779 67.3321 71.381 67.3281C71.4842 67.3321 71.5954 67.3321 71.7224 67.3321C71.7462 67.3321 71.766 67.3321 71.7898 67.3321C72.3693 67.3321 72.9051 66.9829 73.036 66.4272C73.0519 66.3756 73.0678 66.3081 73.0757 66.2446C73.0797 66.2288 73.0797 66.2169 73.0797 66.2089C73.0876 66.1534 73.1075 66.0621 73.1075 65.943V58.0927H77.374C77.7669 58.0927 78.132 57.9935 78.3979 57.7315C78.6638 57.4696 78.767 57.1005 78.7631 56.7155C78.7631 56.2551 78.6757 55.8543 78.4257 55.5447Z" fill="#001E61"/>
<path d="M23.8176 39.6997C22.7024 38.9138 21.1148 38.5606 19.0669 38.5606C17.5667 38.5606 16.4991 38.6003 15.8283 38.6876C14.6933 38.8345 13.7011 39.1361 12.8716 39.6044C11.9706 39.1044 10.9903 38.7908 9.94655 38.6598C9.66873 38.6202 9.27185 38.5963 8.74399 38.5805C8.22011 38.5646 7.54541 38.5606 6.71989 38.5606C4.59657 38.5646 2.95744 38.9139 1.80251 39.6957C0.643617 40.4736 0.048293 41.7158 0.0562307 43.2319V50.9196C0.0562307 51.3403 0.163389 51.7371 0.445176 52.0229C0.726962 52.3086 1.12384 52.4198 1.54057 52.4198C1.89777 52.4198 2.18749 52.4118 2.40974 52.396C2.62009 52.3721 2.7471 52.3721 2.91775 52.3007C3.4853 52.1142 3.79487 51.5268 3.77105 50.9235V42.9382C3.78296 42.6009 3.90996 42.3945 4.43385 42.1524C4.95376 41.9262 5.83484 41.7913 7.03343 41.7913C7.11677 41.7913 7.22393 41.7912 7.35887 41.7992C7.47 41.8032 7.60494 41.8071 7.75179 41.8151C7.78751 41.823 7.81132 41.8151 7.83513 41.827C7.88276 41.8309 7.92245 41.8309 7.9661 41.8309H8.67255C9.49807 41.827 10.0736 41.9341 10.3395 42.0691C10.7324 42.2754 10.9149 42.5691 10.9308 43.2478V50.9196C10.9308 51.3403 11.038 51.7411 11.3237 52.0229C11.6095 52.3086 12.0064 52.4158 12.431 52.4158C12.7882 52.4158 13.078 52.4079 13.3002 52.392C13.5106 52.3682 13.6376 52.3682 13.8042 52.2967C14.3797 52.1142 14.6972 51.5268 14.6734 50.9156V43.2677C14.7012 42.5691 14.9274 42.2675 15.6418 42.0254C15.9355 41.9302 16.7055 41.8428 17.8525 41.7992L18.0191 41.7913L18.0271 41.7833H18.5549C19.7376 41.7793 20.6108 41.9143 21.1228 42.1365C21.6427 42.3786 21.7617 42.5771 21.7737 42.9025V50.9156C21.7498 51.5228 22.0673 52.1142 22.6428 52.2967C22.8135 52.3642 22.9405 52.3682 23.1469 52.392C23.3731 52.4079 23.6588 52.4158 24.016 52.4158H24.0279C24.4407 52.4158 24.8336 52.3047 25.1154 52.0189C25.3972 51.7332 25.5044 51.3363 25.5044 50.9156V43.228C25.5083 41.7198 24.9368 40.4815 23.8176 39.6997ZM44.4753 38.5606C44.1102 38.5606 43.8205 38.5686 43.5943 38.5844C43.3799 38.6083 43.2529 38.6083 43.0783 38.6797C42.5068 38.8623 42.1893 39.4496 42.2131 40.0569V48.1493C42.2052 48.3954 42.094 48.5899 41.4908 48.824C40.9034 49.0344 39.931 49.1614 38.6134 49.1574H34.3509C33.0094 49.1574 32.0132 49.0304 31.4139 48.8121C30.7988 48.57 30.6757 48.3636 30.6678 48.1057V40.0608C30.6916 39.4536 30.382 38.8662 29.8145 38.6797C29.6438 38.6122 29.5168 38.6083 29.3065 38.5844C29.0803 38.5686 28.7945 38.5606 28.4373 38.5606C28.0206 38.5606 27.6237 38.6718 27.3419 38.9535C27.0601 39.2393 26.953 39.6362 26.953 40.0569V48.1096C26.9411 49.5344 27.6396 50.6973 28.9136 51.3918C30.1836 52.0943 31.9854 52.4118 34.3469 52.4158H35.5971L35.605 52.4237L35.7836 52.4277C36.1091 52.4356 36.3948 52.4436 36.6409 52.4476C36.8869 52.4515 37.0894 52.4555 37.2481 52.4555C40.0461 52.4515 42.1695 52.13 43.6538 51.4355C45.1381 50.7568 45.9875 49.5821 45.9716 48.1096V40.0608C45.9716 39.6362 45.8644 39.2393 45.5787 38.9535C45.2969 38.6678 44.896 38.5606 44.4753 38.5606ZM76.6625 38.7233C76.6625 38.7233 75.9759 38.6241 75.2933 38.6202C74.8765 38.6202 74.4797 38.7273 74.1979 39.0091C73.9161 39.2909 73.8089 39.6878 73.8089 40.1045V50.9156C73.7851 51.5188 74.1026 52.0983 74.6702 52.2928C74.8408 52.3642 74.9678 52.3682 75.1782 52.388C75.4004 52.4039 75.6822 52.4118 76.0394 52.4118H76.0513C76.4681 52.4118 76.861 52.3007 77.1388 52.0149C77.4206 51.7292 77.5277 51.3323 77.5277 50.9116V40.1005C77.5476 39.4933 77.238 38.898 76.6625 38.7233ZM71.1578 38.5527H58.2313C57.7908 38.5487 57.3621 38.7035 57.0962 39.0448C56.8303 39.3822 56.735 39.8148 56.735 40.3109C56.735 40.7276 56.8462 41.1245 57.1319 41.4063C57.4177 41.6881 57.8146 41.7952 58.2353 41.7952H62.8351V50.9196C62.8351 51.0505 62.855 51.1458 62.8629 51.2053C62.8629 51.2132 62.8629 51.2212 62.8669 51.2371C62.8788 51.3125 62.8947 51.3839 62.9145 51.4514C63.0574 52.0626 63.6726 52.4476 64.3274 52.4158C64.4663 52.4158 64.5854 52.4118 64.6965 52.4118C64.8076 52.4158 64.9267 52.4158 65.0656 52.4158C65.0894 52.4158 65.1132 52.4158 65.1371 52.4158C65.7641 52.4158 66.3436 52.0388 66.4825 51.4395C66.4984 51.3839 66.5142 51.3125 66.5261 51.241C66.5301 51.2252 66.5301 51.2093 66.5301 51.2013C66.538 51.1418 66.5579 51.0466 66.5579 50.9156V41.7913H71.1578C71.5785 41.7913 71.9753 41.6841 72.2611 41.4023C72.5469 41.1205 72.658 40.7236 72.658 40.3069C72.658 39.8108 72.5627 39.3782 72.2968 39.0409C72.0269 38.7075 71.5983 38.5487 71.1578 38.5527ZM59.3545 49.205C59.2672 49.2011 59.0449 49.2011 58.6361 49.2011C57.4534 49.1971 55.1475 49.1971 55.084 49.1971C54.9689 49.1971 54.1553 49.1931 54.0362 49.1931C52.9726 49.1971 52.2026 49.0621 51.7661 48.8478C51.3335 48.6176 51.2144 48.4232 51.1985 48.0263V40.1243C51.2223 39.5052 50.8969 38.9099 50.3135 38.7313C50.0119 38.64 49.6229 38.6321 48.9284 38.6281C48.5196 38.6241 48.1267 38.7432 47.8528 39.0329C47.5829 39.3226 47.4837 39.7156 47.4837 40.1402V48.0302C47.4678 49.8916 48.5553 51.3918 50.4365 52.0269C51.5081 52.4118 52.159 52.4714 54.1474 52.4793C54.2267 52.4793 59.283 52.4793 59.283 52.4793H59.3068C59.7394 52.4793 60.1601 52.3166 60.4221 51.9792C60.688 51.6379 60.7832 51.2013 60.7832 50.6973C60.7872 50.3044 60.6721 49.9234 60.4022 49.6495C60.1363 49.3717 59.7633 49.2407 59.3545 49.205Z" fill="#231F20"/>
<path d="M35.8675 29.4603C35.8636 27.0512 33.9109 25.0986 31.5018 25.0946C30.4937 25.0986 29.569 25.4399 28.8348 26.0154C28.9816 29.0872 30.4263 31.8178 32.629 33.6752C34.4903 33.1712 35.8636 31.4805 35.8675 29.4603ZM41.5628 29.4603C41.5628 26.1702 44.2298 23.4991 47.524 23.4991C48.4527 23.4991 49.3298 23.7095 50.1116 24.0865C49.4211 18.8477 44.9403 14.7995 39.5109 14.7995C34.0816 14.7995 29.6007 18.8477 28.9141 24.0865C29.696 23.7095 30.5731 23.4952 31.5018 23.4952C34.792 23.4952 37.459 26.1662 37.463 29.4563C37.463 31.7741 36.1374 33.7824 34.2046 34.7706C35.7683 35.6676 37.5821 36.1835 39.5149 36.1835C41.4477 36.1835 43.2614 35.6676 44.8252 34.7706C42.8884 33.7863 41.5628 31.7781 41.5628 29.4603ZM41.3763 27.214L40.0586 31.3415C39.8681 31.9329 39.2767 32.2822 38.6814 32.1829C38.6259 32.175 38.5703 32.1591 38.5147 32.1432C37.8678 31.9369 37.5106 31.2423 37.717 30.5954L38.8203 27.1306C37.8718 25.9677 37.2169 24.6461 36.7605 23.5507C36.2327 22.2728 35.9866 21.3004 35.9747 21.2607C35.808 20.6019 36.2088 19.9312 36.8677 19.7684C37.5265 19.6018 38.1972 20.0026 38.3639 20.6614C38.3639 20.6614 38.3639 20.6654 38.3719 20.6892C38.3798 20.713 38.3877 20.7487 38.3996 20.7924C38.4274 20.8877 38.4671 21.0266 38.5227 21.2012C38.6338 21.5544 38.8045 22.0505 39.0346 22.6101C39.495 23.7254 40.2094 25.0787 41.0905 25.9876C41.404 26.313 41.5112 26.7853 41.3763 27.214ZM41.4358 18.8953L41.1262 19.6851C40.9357 20.1693 40.4714 20.467 39.9792 20.467C39.8284 20.467 39.6776 20.4392 39.5308 20.3796C38.8997 20.1296 38.5862 19.4152 38.8322 18.7842L39.1418 17.9944C39.3918 17.3594 40.1062 17.0498 40.7373 17.2959C41.3723 17.5459 41.6858 18.2603 41.4358 18.8953ZM43.1583 29.4603C43.1622 31.4805 44.5354 33.1751 46.3968 33.6752C48.6035 31.8178 50.0442 29.0872 50.191 26.0154C49.4528 25.4439 48.5281 25.0986 47.524 25.0946C45.1109 25.0946 43.1622 27.0473 43.1583 29.4603ZM67.249 14.7995C61.3434 14.7995 56.557 19.5859 56.557 25.4915C56.557 31.3971 61.3434 36.1835 67.249 36.1835C73.1547 36.1835 77.9411 31.3971 77.9411 25.4915C77.9411 19.5859 73.1507 14.7995 67.249 14.7995ZM65.7845 22.3125L66.0941 21.5227C66.3402 20.8916 67.0546 20.5781 67.6896 20.8241C68.3206 21.0742 68.6342 21.7846 68.3881 22.4196L68.0785 23.2094C67.888 23.6936 67.4237 23.9913 66.9315 23.9913C66.7807 23.9913 66.6299 23.9635 66.4831 23.904C65.848 23.6579 65.5345 22.9435 65.7845 22.3125ZM74.7898 28.6546C73.4245 29.2262 72.0513 29.4444 70.7734 29.4444C67.507 29.4246 64.832 28.0752 63.6652 27.3846L60.3671 28.9642C59.7519 29.2579 59.0177 28.9999 58.724 28.3848C58.4303 27.7736 58.6883 27.0354 59.3035 26.7417L63.2127 24.8724C63.6176 24.6779 64.0899 24.7176 64.455 24.9795L64.4748 24.9914C64.4907 25.0033 64.5225 25.0232 64.5621 25.051C64.6415 25.1025 64.7646 25.178 64.9233 25.2732C65.2448 25.4637 65.721 25.7177 66.3045 25.9757C67.4753 26.4916 69.0826 26.9917 70.7773 26.9877C71.7775 26.9877 72.8094 26.821 73.8413 26.3884C74.4683 26.1265 75.1907 26.4202 75.4526 27.0473C75.7146 27.6704 75.4169 28.3927 74.7898 28.6546ZM11.7767 14.7995C5.87112 14.7995 1.08472 19.5859 1.08472 25.4915C1.08472 31.3971 5.87112 36.1835 11.7767 36.1835C17.6824 36.1835 22.4688 31.3971 22.4688 25.4915C22.4688 19.5859 17.6824 14.7995 11.7767 14.7995ZM12.0347 18.0103L12.1617 17.1728C12.2649 16.5021 12.892 16.0377 13.5627 16.1409C14.2334 16.2441 14.6978 16.8712 14.5946 17.5419L14.4676 18.3794C14.3763 18.9906 13.8485 19.4271 13.2531 19.4271C13.1896 19.4271 13.1301 19.4232 13.0666 19.4112C12.3959 19.312 11.9315 18.681 12.0347 18.0103ZM11.0822 29.5397C11.0544 29.5873 10.6774 30.2422 10.0027 30.9764C9.32797 31.6987 8.3437 32.556 6.94668 32.7981C6.83158 32.8179 6.71251 32.8179 6.60139 32.8021C6.09338 32.7346 5.66474 32.3377 5.5814 31.798C5.47821 31.1431 5.92669 30.5279 6.57757 30.4208C7.07765 30.3533 7.68885 29.9366 8.16511 29.4405C8.64137 28.9523 8.96681 28.4284 9.01444 28.349L9.0184 28.3411C9.34782 27.7656 10.0781 27.5712 10.6496 27.9006C11.2171 28.226 11.4116 28.9642 11.0822 29.5397ZM15.3566 32.9449C15.2812 32.9569 15.2058 32.9648 15.1304 32.9648C14.547 32.9648 14.031 32.552 13.9199 31.9607C13.7175 30.8296 13.015 29.6707 12.2927 28.7896C11.5743 27.9085 10.8599 27.3013 10.7329 27.1981C10.7171 27.1822 10.7131 27.1822 10.7131 27.1822C10.348 26.8925 10.1773 26.4242 10.2686 25.9717L11.1298 21.729C11.2648 21.0623 11.9156 20.6336 12.5824 20.7686C13.2492 20.9035 13.6778 21.5544 13.5429 22.2212L12.8205 25.7653C13.146 26.067 13.5706 26.4956 14.0231 27.0274C14.9359 28.1189 15.9797 29.6389 16.3369 31.5122C16.4639 32.175 16.0234 32.8179 15.3566 32.9449Z" fill="#F18A00"/>
<path d="M75.7257 5.67256C74.3683 5.0812 72.4593 4.81926 69.9947 4.81529H63.5414C61.9578 4.81529 60.787 4.72401 60.0845 4.57319C59.7313 4.49779 59.509 4.4065 59.4019 4.33506C59.2947 4.25966 59.2788 4.22394 59.2709 4.14853V3.53733C59.2828 3.46986 59.2749 3.45002 59.4812 3.35476C59.6876 3.26745 60.1044 3.17617 60.7036 3.12457C60.91 3.10473 61.8149 3.08885 63.2635 3.09282H73.5349C74.1103 3.09282 74.6461 2.99757 75.0351 2.74357C75.424 2.48956 75.5748 2.13237 75.5709 1.75533C75.5709 1.29891 75.4439 0.905998 75.0827 0.600399C74.7215 0.29083 74.1342 0.143983 73.5349 0.147952C71.8164 0.147952 62.946 0.140015 61.7792 0.140015C60.5846 0.140015 59.4336 0.243204 58.7867 0.338456C56.0482 0.719463 54.2027 1.90614 54.2186 3.5413V4.17631C54.1987 5.37093 55.0878 6.3552 56.6991 6.93465C58.2985 7.52203 60.5647 7.78795 63.5255 7.79191H69.8518C70.9115 7.78795 71.6735 7.8832 72.0902 8.01814C72.503 8.16895 72.5704 8.25627 72.5903 8.47058V8.91112C72.5704 9.16513 72.4712 9.28419 72.0029 9.45485C71.5346 9.60964 70.6892 9.71283 69.5184 9.71283H56.33C55.7386 9.70886 55.1552 9.85174 54.798 10.1573C54.4408 10.459 54.3138 10.8479 54.3099 11.2964C54.3099 11.6774 54.4567 12.0346 54.8377 12.2926C55.2187 12.5466 55.7506 12.6498 56.3141 12.6498H69.4986C72.1299 12.6458 74.158 12.3719 75.5987 11.7488C77.0433 11.1297 77.8014 10.1256 77.7895 8.91112V8.37136C77.8014 7.21643 77.087 6.25995 75.7257 5.67256Z" fill="#001E61"/>
<path d="M48.6209 9.70156H35.5198C33.968 9.70156 32.825 9.57456 32.1463 9.36024C31.4597 9.12608 31.2891 8.92367 31.2732 8.59822V4.01423C31.2891 3.74832 31.4121 3.58957 32.0035 3.38715C32.5869 3.20459 33.583 3.08949 34.9444 3.08949H48.49C49.0297 3.09346 49.5417 2.9744 49.887 2.69261C50.2323 2.41082 50.3633 2.03378 50.3633 1.61706C50.3633 1.20033 50.2323 0.819323 49.887 0.541506C49.5417 0.259719 49.0297 0.144623 48.49 0.144623H34.6943C32.1662 0.144623 30.2175 0.438316 28.8443 1.09317C27.4631 1.74406 26.7368 2.79977 26.7527 4.0817V8.70538C26.7249 10.2889 27.856 11.4994 29.8841 12.0789C31.0906 12.4639 32.9123 12.6306 35.4246 12.6306H48.3114C48.9146 12.6306 49.4425 12.5432 49.8513 12.3051C50.264 12.063 50.4585 11.678 50.4506 11.2812C50.4506 10.8327 50.3355 10.4437 50.01 10.1421C49.6766 9.8365 49.1567 9.69362 48.6209 9.70156Z" fill="#001E61"/>
<path d="M21.8756 9.70168H8.77454C7.22273 9.70168 6.0797 9.57468 5.40104 9.36036C4.71443 9.1262 4.54377 8.92379 4.52789 8.59835V4.01435C4.54377 3.74844 4.6668 3.58969 5.25816 3.38728C5.84157 3.20471 6.83775 3.08961 8.19906 3.08961H21.7447C22.2844 3.09358 22.7964 2.97452 23.1417 2.69273C23.487 2.41095 23.618 2.03391 23.618 1.61718C23.618 1.20045 23.487 0.819446 23.1417 0.541628C22.7964 0.259841 22.2844 0.144745 21.7447 0.144745H7.94902C5.42088 0.144745 3.47218 0.438438 2.09897 1.09329C0.71385 1.74815 -0.00847684 2.80386 0.00342964 4.08579V8.70551C-0.0243522 10.2891 1.10676 11.4996 3.13483 12.079C4.34136 12.464 6.16305 12.6307 8.67532 12.6307H21.5621C22.1654 12.6307 22.6932 12.5434 23.102 12.3052C23.5148 12.0631 23.7092 11.6782 23.7013 11.2813C23.7013 10.8328 23.5862 10.4439 23.2608 10.1422C22.9313 9.83662 22.4114 9.69374 21.8756 9.70168Z" fill="#001E61"/>
</g>
<defs>
<clipPath id="clip0_111_324">
<rect width="78.7654" height="70.2919" fill="white" transform="translate(0 0.373932)"/>
</clipPath>
</defs>
</svg>
